<svg id="Layer_1" data-name="Layer 1" xmlns="http://www.w3.org/2000/svg" viewBox="0 0 356.31 79.45"><defs><style>.cls-1{fill:#edc644;}.cls-2{fill:#ecca4f;}.cls-3{fill:#ecc744;}.cls-4{fill:#030303;}.cls-5{fill:#040404;}.cls-6{fill:#edc745;}.cls-7{fill:#eec746;}.cls-8{fill:#edc94b;}.cls-9{fill:#ebc749;}.cls-10{fill:#e9cc5c;}.cls-11{fill:#050405;}.cls-12{fill:#ecc646;}.cls-13{fill:#cdbb70;}</style></defs><path class="cls-1" d="M217.41,24.72c1.27,6.93,2.56,14,4,21.6.71-.71,1.29-1,1.42-1.45,1.68-5.55,2.76-11.16,1.48-17a11.4,11.4,0,0,1-.15-2.41,9.38,9.38,0,0,1,.24-1.53h7.44l3.44,22,.85.05c1.29-3.47,1.47-7.2,2.17-10.81s1.43-7.48,2.19-11.43h7.5c-1.22,10.51-3.82,20.4-5.68,30.58H231.12l-1.85-9.9-.92,0c-.72,3.3-1.43,6.59-2.17,10H215.29c-2.14-9.95-4.09-20-5.91-30.5C212.35,23.59,214.78,23.1,217.41,24.72Z" transform="translate(-13.27 -0.78)"/><path class="cls-2" d="M369.58,59.87l-3.76,3.55h-15V58c3.48-1.08,7.07,0,10.43-.65.25-.33.55-.55.59-.81a14.88,14.88,0,0,0,0-1.94c-4.69-.07-9.8,1.34-12.5-4.79V36.46c.59-.63,1.19-1.18,1.68-1.81a8.32,8.32,0,0,1,7.72-3.18c3.5.23,7,.05,10.83.05Zm-7.76-11.63v-10h-4.51a39.45,39.45,0,0,0,0,10Z" transform="translate(-13.27 -0.78)"/><path class="cls-3" d="M296.87,23.92c.29,5.38.57,10.63.89,16.56,3.62-2.22,3.56-6.11,5.91-8.37h6.66c0,4-3,6.38-4.06,10.93,1.28,2.83,3.07,6.81,5.07,11.26H304c-2.88-2-2.32-6.43-5.85-8.32-1.26,2.73-.3,5.48-.8,8.35h-7.44V23.92Z" transform="translate(-13.27 -0.78)"/><path class="cls-4" d="M187.24,23.87h7V39.8c2.1,0,2.1,0,5.84-7.61h8l-5.24,10.44c1.31,4.12,4.73,7.29,5,12h-7.06c-2.59-2.26-2.21-6.88-6.36-8.82v8.75h-7.26Z" transform="translate(-13.27 -0.78)"/><path class="cls-5" d="M119.69,54.5l-5.26-5.14V28.87l5.38-5h15.52v6.22H124.16l-1.43,1.52V46.18c.58,1.49,1.72,1.79,3.17,1.76,3.12-.07,6.24,0,9.57,0V54.5Z" transform="translate(-13.27 -0.78)"/><path class="cls-6" d="M269.79,50.19l-4.45,4.34H253l-3.88-4.43c0-3.74,0-8.08,0-12.41a4.05,4.05,0,0,1,1-2.41c1.13-1.27,2.49-2.35,4-3.7,2.73,0,5.63-.07,8.53,0A7.4,7.4,0,0,1,269.78,39C269.8,42.81,269.79,46.64,269.79,50.19ZM256.82,38c.16,3.64-.37,6.86.46,10.43l4.8-.25V38.3Z" transform="translate(-13.27 -0.78)"/><path class="cls-4" d="M178.33,54.66h-12L162.22,50V36.12l3.9-4h12.29l4.27,4.08V50Zm-8.54-16.44V48.47h5a34.87,34.87,0,0,0,.06-10.25Z" transform="translate(-13.27 -0.78)"/><path class="cls-4" d="M154.45,54.66H142.77l-4.37-4.75V36.1l4.28-4H154.4l4.31,3.76V50.47Zm-3.22-6.34c.14-3.26.15-6.42,0-9.56-1.83-1.41-3.52-1.67-5.26-.11v9.67Z" transform="translate(-13.27 -0.78)"/><path class="cls-7" d="M338.2,38.27h-4.67a100.93,100.93,0,0,0-.42,15.51c-2,.9-3.36,1-7.32.52v-22c2.16-1.27,4.32-.37,6.67.44a12.17,12.17,0,0,1,9.41-.34l3.7,3.32V54.42H338.2Z" transform="translate(-13.27 -0.78)"/><path class="cls-8" d="M280.4,32.8c2.54-.74,4.78-2,7.55-.43-.13,1.7-.27,3.56-.41,5.57l-6,.41c-.91,5.33.15,10.68-.57,16h-7V32.55C276.14,30.71,278.24,31.45,280.4,32.8Z" transform="translate(-13.27 -0.78)"/><path class="cls-9" d="M314.12,32.06h7V54.37h-7Z" transform="translate(-13.27 -0.78)"/><path class="cls-10" d="M314.17,28.71v-5h6.89v5Z" transform="translate(-13.27 -0.78)"/><path class="cls-6" d="M82.12,80.22H36L13.27,40.76C15.52,35.7,35.11,2.15,36.63.78H81.87A14.92,14.92,0,0,1,83.33,2.6c2.9,5.07,5.76,10.16,8.64,15.23q5,8.81,10,17.59c1,1.68,2,3.32,3.07,5.11C97.4,53.81,89.88,67.22,82.12,80.22Zm15.81-39.7L78.54,6.94H39.68L20.29,40.53,39.68,74.11H78.56C85,62.92,91.44,51.78,97.93,40.52Z" transform="translate(-13.27 -0.78)"/><path class="cls-11" d="M97.93,40.52C91.44,51.78,85,62.92,78.56,74.11H39.68L20.29,40.53,39.68,6.94H78.54ZM70.12,29.46q3-5.67,6.08-11.33l-.55-.3-6.3,11.11-1,.21c1.92-4.24,4.66-7.65,6.16-11.69C71.8,20.9,70,24.87,67.37,28.34l-.6-.37,6.82-11.24-.48-.3c-3.37,4.58-7.25,8.82-9.27,14.26.31,1.16,1,2.51.57,3.34-1.52,3-3.39,5.93-5.32,9.21-2.11-3.27-3.94-6.11-5.79-9,.28-.41.46-.7.67-1a5.77,5.77,0,0,0,1.1-5.51,25.14,25.14,0,0,0-1.41-3.84,13,13,0,0,0-8-6.88c-1.93-.54-3.36-.12-4.25,1.64a7.16,7.16,0,0,0-1,4.09,25.38,25.38,0,0,0,2.23,7c1.85,3.67,4.68,6.08,9.37,5.19L57.53,45.6c-2.17,3.06-4.38,6.08-6.48,9.18A36.4,36.4,0,0,0,47.5,60.7c-1.12,2.59.26,4.11,3.34,3.79,4.51-4,5-10.43,8.38-15.42.37.66.7,1.21,1,1.78,2,3.8,3.94,7.58,5.84,11.41a3.85,3.85,0,0,0,3,2.42l1.41-.82A4,4,0,0,0,69.93,60c-1.58-2.35-3.08-4.74-4.61-7.11l-4.67-7.31,6-10.88a4.19,4.19,0,0,0,4.09-2,19.67,19.67,0,0,0,2-3.08c1.43-3.15,2.75-6.36,4.09-9.55a7.45,7.45,0,0,0,.29-1.24l-.26-.08c-2.08,3.81-4.15,7.63-6.4,11.75Z" transform="translate(-13.27 -0.78)"/><path class="cls-12" d="M70.12,29.46l.36,1.06c2.25-4.12,4.32-7.94,6.4-11.75l.26.08a7.45,7.45,0,0,1-.29,1.24c-1.34,3.19-2.66,6.4-4.09,9.55a19.67,19.67,0,0,1-2,3.08,4.19,4.19,0,0,1-4.09,2l-6,10.88,4.67,7.31c1.53,2.37,3,4.76,4.61,7.11a4,4,0,0,1,.55,3.86l-1.41.82a3.85,3.85,0,0,1-3-2.42c-1.9-3.83-3.88-7.61-5.84-11.41-.3-.57-.63-1.12-1-1.78-3.35,5-3.87,11.39-8.38,15.42-3.08.32-4.46-1.2-3.34-3.79a36.4,36.4,0,0,1,3.55-5.92c2.1-3.1,4.31-6.12,6.48-9.18L52.08,34.94c-4.69.89-7.52-1.52-9.37-5.19a25.38,25.38,0,0,1-2.23-7,7.16,7.16,0,0,1,1-4.09c.89-1.76,2.32-2.18,4.25-1.64a13,13,0,0,1,8,6.88,25.14,25.14,0,0,1,1.41,3.84A5.77,5.77,0,0,1,54,33.29c-.21.29-.39.58-.67,1,1.85,2.85,3.68,5.69,5.79,9C61,40,62.89,37.08,64.41,34c.4-.83-.26-2.18-.57-3.34,2-5.44,5.9-9.68,9.27-14.26l.48.3L66.77,28l.6.37c2.59-3.47,4.43-7.44,7.1-10.88-1.5,4-4.24,7.45-6.16,11.69l1-.21Z" transform="translate(-13.27 -0.78)"/><path class="cls-13" d="M70.12,29.46l-.77-.52,6.3-11.11.55.3Q73.16,23.8,70.12,29.46Z" transform="translate(-13.27 -0.78)"/></svg>